# xmcd
#
# Track frame offsets: 
#        150
#        16416
#        29827
#        43808
#        58756
#        72809
#        86884
#        100729
#        112616
#        127346
#        141498
#        155975
#        167560
#        181931
#        195679
#        206804
#        219923
#        232718
#        245814
#        259205
#        271264
#        285615
#        298430
#
# Disc length: 4169 seconds
#
# Revision: 0
# Processed by: cddbd v1.5.2PL0 Copyright (c) Steve Scherf et al.
# Submitted via: ExactAudioCopyFreeDBPlugin 1.0
#
DISCID=6d104717
DTITLE=Various Artist - Vocal Quartets Vol. 2: D-E-F-G (1929-1932)
DYEAR=1997
DGENRE=Gospel
TTITLE0=Delta Big Four - We All Gonna Face the Rising Sun
TTITLE1=Delta Big Four - Moaner Let's Go Down in the Valley
TTITLE2=Delta Big Four - Jesus Got His Arms Around Me
TTITLE3=Delta Big Four - God Won't Forsake His Own
TTITLE4=Delta Big Four - I'll Be Here
TTITLE5=Delta Big Four - Where Was Eve Sleeping
TTITLE6=Delta Big Four - I Know My Time Ain't Long
TTITLE7=Empire Jubilee Quartet - Get Right Church
TTITLE8=Empire Jubilee Quartet - God's Going to Move All My Troubles A
TTITLE8=way
TTITLE9=Famous Blue Jay Singers of Birmingham - Clanka A Lanka (Sleep 
TTITLE9=On Mother)
TTITLE10=Famous Blue Jay Singers of Birmingham - I'm Leaning on the Lo
TTITLE10=rd
TTITLE11=Famous Blue Jay Singers of Birmingham - Oh My Lord Didn't It 
TTITLE11=Rain
TTITLE12=Famous Blue Jay Singers of Birmingham - Standing by the Bedsi
TTITLE12=de of a Neighbor
TTITLE13=Famous Blue Jay Singers of Birmingham - I Declare My Mother O
TTITLE13=ught to Live Right
TTITLE14=Famous Blue Jay Singers of Birmingham - Children Wade in the 
TTITLE14=Water
TTITLE15=Famous Blue Jay Singers of Birmingham - Brother Jonah
TTITLE16=Famous Blue Jay Singers of Birmingham - Sleep, Baby, Sleep
TTITLE17=Four Dusty Travelers - Po' Mourner
TTITLE18=Four Dusty Travelers - Me an' Mah Pardner
TTITLE19=Four Dusty Travelers - Great Gittin' Up Mornin'
TTITLE20=Four Dusty Travelers - March Down to Jerdon
TTITLE21=Golden Crown Quartet - The Sign of Judgement
TTITLE22=Golden Crown Quartet - Scandalize My Name
EXTD=
EXTT0=
EXTT1=
EXTT2=
EXTT3=
EXTT4=
EXTT5=
EXTT6=
EXTT7=
EXTT8=
EXTT9=
EXTT10=
EXTT11=
EXTT12=
EXTT13=
EXTT14=
EXTT15=
EXTT16=
EXTT17=
EXTT18=
EXTT19=
EXTT20=
EXTT21=
EXTT22=
PLAYORDER=
